<svg xmlns="http://www.w3.org/2000/svg" width="560" height="120" viewBox="0 0 560 120" role="img" aria-label="PSoXide wordmark">
  <defs>
    <linearGradient id="accentX" x1="256" y1="43.5" x2="330.5" y2="111.5" gradientUnits="userSpaceOnUse">
      <stop offset="0%" stop-color="#00c4ec"/>
      <stop offset="100%" stop-color="#00bfe6"/>
    </linearGradient>
    <filter id="softGlow" x="-35%" y="-35%" width="170%" height="170%">
      <feGaussianBlur stdDeviation="6"/>
    </filter>
  </defs>
  <path fill="#ffffff" fill-rule="evenodd" d="M 57.00,44.50 L 110.00,44.50 L 112.00,45.50 L 116.50,50.00 L 117.50,53.00 L 117.50,79.00 L 115.50,84.00 L 109.00,88.50 L 95.00,88.50 L 94.00,89.50 L 72.00,88.50 L 69.00,89.50 L 68.50,111.00 L 57.00,111.50 L 55.50,110.00 L 55.50,54.00 L 57.00,44.50 Z M 137.00,44.50 L 181.50,45.00 L 181.00,54.50 L 143.00,54.50 L 140.50,57.00 L 140.50,70.00 L 142.00,71.50 L 178.00,72.50 L 181.50,75.00 L 184.50,82.00 L 184.50,102.00 L 181.00,108.50 L 173.00,111.50 L 129.50,111.00 L 129.50,102.00 L 131.00,100.50 L 170.00,100.50 L 171.50,99.00 L 171.50,84.00 L 170.00,82.50 L 138.00,82.50 L 130.50,78.00 L 128.50,74.00 L 128.50,52.00 L 132.00,46.50 L 137.00,44.50 Z M 412.00,45.50 L 422.50,46.00 L 422.50,111.00 L 379.00,111.50 L 373.00,109.50 L 368.50,102.00 L 368.50,73.00 L 370.50,68.00 L 375.00,64.50 L 410.00,64.50 L 412.00,45.50 Z M 343.00,47.50 L 354.00,47.50 L 355.50,49.00 L 355.50,56.00 L 354.00,57.50 L 343.00,57.50 L 343.00,47.50 Z M 69.00,54.50 L 69.00,78.50 L 102.00,78.50 L 104.50,76.00 L 105.50,59.00 L 102.00,54.50 L 69.00,54.50 Z M 459.00,63.50 L 483.00,64.50 L 487.00,66.50 L 489.50,70.00 L 489.50,89.00 L 485.00,92.50 L 449.00,93.50 L 448.50,101.00 L 450.00,102.50 L 488.00,102.50 L 488.00,111.50 L 450.00,111.50 L 443.00,110.50 L 437.50,106.00 L 436.50,104.00 L 436.50,72.00 L 438.50,68.00 L 444.00,64.50 L 458.00,64.50 L 459.00,63.50 Z M 204.00,64.50 L 242.00,64.50 L 246.50,67.00 L 248.50,71.00 L 248.50,103.00 L 244.00,109.50 L 237.00,111.50 L 211.00,111.50 L 203.00,110.50 L 197.50,106.00 L 196.50,104.00 L 196.50,71.00 L 200.00,66.50 L 204.00,64.50 Z M 344.00,64.50 L 354.50,65.00 L 354.00,111.50 L 344.00,111.50 L 342.50,110.00 L 342.50,66.00 L 344.00,64.50 Z M 211.00,72.50 L 208.50,74.00 L 208.50,101.00 L 210.00,102.50 L 235.00,102.50 L 236.50,101.00 L 236.50,74.00 L 235.00,72.50 L 211.00,72.50 Z M 384.00,72.50 L 380.50,76.00 L 380.50,99.00 L 381.50,101.00 L 384.00,102.50 L 410.00,102.50 L 411.50,101.00 L 411.50,74.00 L 410.00,72.50 L 384.00,72.50 Z M 450.00,72.50 L 448.50,74.00 L 449.00,84.50 L 478.50,84.00 L 478.50,75.00 L 476.00,72.50 L 450.00,72.50 Z" />
  <path fill="#00c4ec" fill-rule="evenodd" opacity="0.34" filter="url(#softGlow)" d="M 256.00,43.50 L 274.00,43.50 L 293.00,68.50 L 310.00,44.50 L 328.00,43.50 L 328.50,45.00 L 322.50,54.00 L 306.50,74.00 L 305.50,77.00 L 330.50,111.00 L 313.00,111.50 L 296.50,89.00 L 292.00,85.50 L 273.00,111.50 L 259.00,111.50 L 258.00,110.50 L 255.00,111.50 L 280.50,77.00 L 256.00,43.50 Z" />
  <path fill="url(#accentX)" fill-rule="evenodd" d="M 256.00,43.50 L 274.00,43.50 L 293.00,68.50 L 310.00,44.50 L 328.00,43.50 L 328.50,45.00 L 322.50,54.00 L 306.50,74.00 L 305.50,77.00 L 330.50,111.00 L 313.00,111.50 L 296.50,89.00 L 292.00,85.50 L 273.00,111.50 L 259.00,111.50 L 258.00,110.50 L 255.00,111.50 L 280.50,77.00 L 256.00,43.50 Z" />
</svg>
