<svg xmlns="http://www.w3.org/2000/svg" width="1024" height="1024" viewBox="0 0 1024 1024" role="img" aria-label="PSoX Player icon">
  <defs>
    <linearGradient id="bg" x1="0" y1="0" x2="0" y2="1">
      <stop offset="0%" stop-color="#111315"/>
      <stop offset="65%" stop-color="#070707"/>
      <stop offset="100%" stop-color="#020202"/>
    </linearGradient>
    <radialGradient id="glow" cx="54%" cy="28%" r="38%">
      <stop offset="0%" stop-color="#00bfe6" stop-opacity="0.30"/>
      <stop offset="45%" stop-color="#00bfe6" stop-opacity="0.10"/>
      <stop offset="100%" stop-color="#00bfe6" stop-opacity="0"/>
    </radialGradient>
    <filter id="softGlow" x="-30%" y="-30%" width="160%" height="160%">
      <feGaussianBlur stdDeviation="18"/>
    </filter>
    <clipPath id="psoClip" clipPathUnits="userSpaceOnUse">
      <rect x="54" y="42" width="195" height="72" rx="4"/>
    </clipPath>
  </defs>
  <rect x="32" y="32" width="960" height="960" rx="224" fill="url(#bg)"/>
  <rect x="48" y="48" width="928" height="928" rx="208" fill="none" stroke="#00bfe6" stroke-opacity="0.10" stroke-width="4"/>
  <ellipse cx="560" cy="294" rx="270" ry="190" fill="url(#glow)"/>
  <rect x="176" y="676" width="672" height="176" rx="42" fill="#002633" fill-opacity="0.62" stroke="#00bfe6" stroke-opacity="0.22" stroke-width="3"/>
  <rect x="210" y="706" width="604" height="4" rx="2" fill="#00bfe6" fill-opacity="0.88"/>
  <g transform="translate(70 148) scale(2.42)">
    <g clip-path="url(#psoClip)">
      <path d="M 57.00,44.50 L 110.00,44.50 L 112.00,45.50 L 116.50,50.00 L 117.50,53.00 L 117.50,79.00 L 115.50,84.00 L 109.00,88.50 L 95.00,88.50 L 94.00,89.50 L 72.00,88.50 L 69.00,89.50 L 68.50,111.00 L 57.00,111.50 L 55.50,110.00 L 55.50,54.00 L 57.00,44.50 Z M 137.00,44.50 L 181.50,45.00 L 181.00,54.50 L 143.00,54.50 L 140.50,57.00 L 140.50,70.00 L 142.00,71.50 L 178.00,72.50 L 181.50,75.00 L 184.50,82.00 L 184.50,102.00 L 181.00,108.50 L 173.00,111.50 L 129.50,111.00 L 129.50,102.00 L 131.00,100.50 L 170.00,100.50 L 171.50,99.00 L 171.50,84.00 L 170.00,82.50 L 138.00,82.50 L 130.50,78.00 L 128.50,74.00 L 128.50,52.00 L 132.00,46.50 L 137.00,44.50 Z M 412.00,45.50 L 422.50,46.00 L 422.50,111.00 L 379.00,111.50 L 373.00,109.50 L 368.50,102.00 L 368.50,73.00 L 370.50,68.00 L 375.00,64.50 L 410.00,64.50 L 412.00,45.50 Z M 343.00,47.50 L 354.00,47.50 L 355.50,49.00 L 355.50,56.00 L 354.00,57.50 L 343.00,57.50 L 343.00,47.50 Z M 69.00,54.50 L 69.00,78.50 L 102.00,78.50 L 104.50,76.00 L 105.50,59.00 L 102.00,54.50 L 69.00,54.50 Z M 459.00,63.50 L 483.00,64.50 L 487.00,66.50 L 489.50,70.00 L 489.50,89.00 L 485.00,92.50 L 449.00,93.50 L 448.50,101.00 L 450.00,102.50 L 488.00,102.50 L 488.00,111.50 L 450.00,111.50 L 443.00,110.50 L 437.50,106.00 L 436.50,104.00 L 436.50,72.00 L 438.50,68.00 L 444.00,64.50 L 458.00,64.50 L 459.00,63.50 Z M 204.00,64.50 L 242.00,64.50 L 246.50,67.00 L 248.50,71.00 L 248.50,103.00 L 244.00,109.50 L 237.00,111.50 L 211.00,111.50 L 203.00,110.50 L 197.50,106.00 L 196.50,104.00 L 196.50,71.00 L 200.00,66.50 L 204.00,64.50 Z M 344.00,64.50 L 354.50,65.00 L 354.00,111.50 L 344.00,111.50 L 342.50,110.00 L 342.50,66.00 L 344.00,64.50 Z M 211.00,72.50 L 208.50,74.00 L 208.50,101.00 L 210.00,102.50 L 235.00,102.50 L 236.50,101.00 L 236.50,74.00 L 235.00,72.50 L 211.00,72.50 Z M 384.00,72.50 L 380.50,76.00 L 380.50,99.00 L 381.50,101.00 L 384.00,102.50 L 410.00,102.50 L 411.50,101.00 L 411.50,74.00 L 410.00,72.50 L 384.00,72.50 Z M 450.00,72.50 L 448.50,74.00 L 449.00,84.50 L 478.50,84.00 L 478.50,75.00 L 476.00,72.50 L 450.00,72.50 Z" fill="#ffffff"/>
    </g>
    <path d="M 256.00,43.50 L 274.00,43.50 L 293.00,68.50 L 310.00,44.50 L 328.00,43.50 L 328.50,45.00 L 322.50,54.00 L 306.50,74.00 L 305.50,77.00 L 330.50,111.00 L 313.00,111.50 L 296.50,89.00 L 292.00,85.50 L 273.00,111.50 L 259.00,111.50 L 258.00,110.50 L 255.00,111.50 L 280.50,77.00 L 256.00,43.50 Z" fill="#00bfe6" filter="url(#softGlow)" opacity="0.38"/>
    <path d="M 256.00,43.50 L 274.00,43.50 L 293.00,68.50 L 310.00,44.50 L 328.00,43.50 L 328.50,45.00 L 322.50,54.00 L 306.50,74.00 L 305.50,77.00 L 330.50,111.00 L 313.00,111.50 L 296.50,89.00 L 292.00,85.50 L 273.00,111.50 L 259.00,111.50 L 258.00,110.50 L 255.00,111.50 L 280.50,77.00 L 256.00,43.50 Z" fill="#00bfe6"/>
  </g>
  <path d="M 258 764 L 283 778 L 258 792 Z" fill="#00bfe6"/>
  <g transform="translate(28 0)">
    <path d="M 368.17,769.63 Q 368.17,777.40 363.12,783.69 Q 358.09,789.99 349.68,792.22 Q 346.05,793.17 341.76,793.60 Q 337.48,794.03 332.21,794.03 L 332.31,816.57 L 323.51,816.57 Q 323.56,813.36 323.66,804.72 Q 323.78,796.06 323.78,777.93 Q 323.78,772.18 323.73,763.83 Q 323.68,755.46 323.51,745.23 Q 325.81,745.16 328.01,745.16 Q 330.23,745.16 331.61,745.16 Q 340.83,745.16 347.30,746.34 Q 353.78,747.51 358.21,750.34 Q 363.05,753.38 365.61,758.25 Q 368.17,763.13 368.17,769.63 Z M 359.06,769.63 Q 359.06,764.14 356.56,760.28 Q 354.05,756.41 348.88,754.18 Q 345.68,752.78 341.94,752.44 Q 338.23,752.10 334.27,752.10 Q 333.79,752.10 333.32,752.10 Q 332.84,752.10 332.31,752.10 Q 332.31,752.68 332.19,760.10 Q 332.09,767.50 332.09,771.81 Q 332.09,775.75 332.10,781.14 Q 332.14,786.51 332.14,787.26 Q 332.63,787.26 333.26,787.26 Q 333.91,787.26 334.27,787.26 Q 337.85,787.26 341.87,786.78 Q 345.90,786.30 348.76,785.02 Q 353.78,782.89 356.42,779.11 Q 359.06,775.32 359.06,769.63 Z M 428.86,816.47 Q 428.21,816.47 422.11,816.41 Q 416.02,816.35 406.52,816.35 Q 400.30,816.35 394.67,816.41 Q 389.05,816.47 385.16,816.47 Q 385.26,807.29 385.35,797.90 Q 385.43,788.49 385.43,779.43 Q 385.43,764.29 385.31,756.36 Q 385.21,748.42 385.16,745.23 L 393.96,745.23 Q 393.86,752.10 393.79,761.10 Q 393.74,770.10 393.74,775.85 Q 393.74,789.87 393.79,799.24 Q 393.86,808.62 393.86,809.17 Q 396.04,809.17 399.12,809.20 Q 402.21,809.22 404.72,809.22 Q 414.25,809.22 421.31,809.13 Q 428.38,809.05 428.86,809.05 L 428.86,816.47 Z M 503.29,813.74 L 494.98,818.00 Q 494.76,817.42 491.64,810.07 Q 488.54,802.71 483.42,791.15 L 451.56,791.15 Q 445.96,803.56 442.93,810.40 Q 439.89,817.22 439.57,818.00 L 432.42,814.16 Q 433.81,811.40 443.85,789.75 Q 453.89,768.08 464.72,744.20 L 471.64,744.20 Q 482.30,768.08 492.58,790.46 Q 502.86,812.83 503.29,813.74 Z M 480.39,784.32 Q 477.51,777.83 474.30,770.75 Q 471.11,763.66 467.60,755.94 L 467.38,755.94 Q 464.67,761.78 460.83,770.34 Q 456.99,778.90 454.49,784.32 L 454.54,784.38 L 480.32,784.38 L 480.39,784.32 Z M 566.59,748.69 Q 566.17,749.22 556.04,761.95 Q 545.93,774.69 539.74,782.52 Q 539.63,792.17 539.75,802.77 Q 539.89,813.36 539.96,816.57 L 531.16,816.57 Q 531.26,813.36 531.37,802.59 Q 531.48,791.79 531.43,783.17 Q 524.92,774.57 515.32,762.40 Q 505.74,750.22 505.00,749.32 L 512.03,744.00 Q 512.73,744.90 520.40,755.19 Q 528.07,765.47 535.85,775.59 L 535.95,775.59 Q 543.47,765.94 551.69,755.27 Q 559.93,744.58 560.35,744.00 L 566.59,748.69 Z M 624.89,816.47 Q 624.40,816.47 617.78,816.41 Q 611.18,816.35 601.45,816.35 Q 594.68,816.35 589.05,816.41 Q 583.43,816.47 579.54,816.47 Q 579.64,813.36 579.73,803.08 Q 579.81,792.80 579.81,781.82 Q 579.81,775.80 579.76,765.89 Q 579.71,755.99 579.54,745.38 Q 583.32,745.38 589.00,745.43 Q 594.68,745.48 600.70,745.48 Q 610.88,745.48 617.27,745.43 Q 623.66,745.38 624.19,745.38 L 624.19,752.78 Q 623.66,752.78 617.51,752.71 Q 611.35,752.63 602.18,752.63 Q 598.19,752.63 594.35,752.66 Q 590.52,752.68 588.28,752.68 Q 588.28,758.70 588.17,764.70 Q 588.06,770.68 588.06,776.02 Q 590.47,776.02 593.74,776.06 Q 597.01,776.07 599.57,776.07 Q 608.95,776.07 616.33,776.00 Q 623.72,775.92 624.19,775.92 L 624.19,783.27 Q 623.77,783.27 615.40,783.18 Q 607.04,783.10 600.10,783.10 Q 597.54,783.10 594.00,783.13 Q 590.47,783.17 588.06,783.17 Q 588.06,793.23 588.11,799.14 Q 588.17,805.06 588.23,809.05 Q 591.37,809.10 595.84,809.13 Q 600.32,809.17 605.49,809.17 Q 613.43,809.17 618.84,809.12 Q 624.24,809.05 624.89,809.05 L 624.89,816.47 Z M 700.49,812.31 L 693.84,817.80 Q 692.66,816.57 685.52,808.55 Q 678.37,800.52 663.52,783.52 L 663.57,783.05 Q 665.59,782.52 668.95,780.74 Q 672.30,778.95 674.61,776.87 Q 676.57,775.07 678.03,772.41 Q 679.50,769.73 679.50,765.26 Q 679.50,761.15 677.33,758.20 Q 675.19,755.24 671.40,753.86 Q 668.31,752.68 664.90,752.44 Q 661.49,752.20 658.61,752.20 Q 656.70,752.20 655.68,752.24 Q 654.67,752.25 654.20,752.25 Q 654.08,762.38 654.04,770.10 Q 654.03,777.83 654.03,781.03 Q 654.03,788.33 654.11,800.85 Q 654.20,813.36 654.25,816.57 L 645.45,816.57 Q 645.50,813.36 645.60,804.17 Q 645.72,794.98 645.72,781.29 Q 645.72,778.63 645.72,771.43 Q 645.72,764.24 645.45,745.23 Q 645.98,745.23 650.77,745.13 Q 655.58,745.01 659.62,745.01 Q 664.26,745.01 668.62,745.55 Q 673.00,746.08 677.16,747.84 Q 682.43,750.07 685.52,754.42 Q 688.60,758.75 688.60,764.61 Q 688.60,772.18 683.95,777.21 Q 679.29,782.24 675.13,784.70 L 675.13,784.97 Q 682.43,793.50 691.15,802.55 Q 699.86,811.61 700.49,812.31 Z" fill="#f4f4f4"/>
  </g>
</svg>
